<?xml version="1.0" ?><!DOCTYPE svg  PUBLIC '-//W3C//DTD SVG 1.1//EN'  'http://www.w3.org/Graphics/SVG/1.1/DTD/svg11.dtd'>
<svg height="6.82666in" style="shape-rendering:geometricPrecision; text-rendering:geometricPrecision; image-rendering:optimizeQuality; fill-rule:evenodd; clip-rule:evenodd" viewBox="0 0 6.82666 6.82666" width="6.82666in" xml:space="preserve"
   xmlns="http://www.w3.org/2000/svg"
   xmlns:xlink="http://www.w3.org/1999/xlink">
   <g>
      <path fill="white" d="M5.91083 1.2175c0.0833031,-0.0833031 0.0833031,-0.218366 0,-0.301669 -0.0833031,-0.0833031 -0.218366,-0.0833031 -0.301669,0l-4.69334 4.69333c-0.0833031,0.0833031 -0.0833031,0.218366 0,0.301669 0.0833031,0.0833031 0.218366,0.0833031 0.301669,0l4.69334 -4.69333z"/>
      <path fill="white" d="M1.2175 0.915827c-0.0833031,-0.0833031 -0.218366,-0.0833031 -0.301669,0 -0.0833031,0.0833031 -0.0833031,0.218366 0,0.301669l4.69334 4.69333c0.0833031,0.0833031 0.218366,0.0833031 0.301669,0 0.0833031,-0.0833031 0.0833031,-0.218366 0,-0.301669l-4.69334 -4.69333z"/>
   </g>
</svg>