<svg width="24" height="23" viewBox="0 0 24 23" fill="none" xmlns="http://www.w3.org/2000/svg">
<path d="M23.2826 10.3136L2.03264 0.313615C1.59514 0.109865 1.07889 0.173614 0.706392 0.479864C0.332642 0.786114 0.171392 1.27986 0.287642 1.74736L2.71139 11.4449L0.287642 21.1424C0.170142 21.6099 0.332642 22.1049 0.706392 22.4111C0.935142 22.5986 1.21514 22.6949 1.50014 22.6949C1.68139 22.6949 1.86264 22.6561 2.03264 22.5761L23.2826 12.5761C23.7201 12.3699 24.0001 11.9299 24.0001 11.4449C24.0001 10.9599 23.7201 10.5199 23.2826 10.3136ZM3.35139 19.1911L4.40014 14.9949L11.5001 11.4449L4.40014 7.89486L3.35139 3.69861L19.8139 11.4449L3.35139 19.1911Z" fill="#fcfcfc"/>
</svg>
