<svg width="25" height="35" viewBox="0 0 25 35" fill="none" xmlns="http://www.w3.org/2000/svg">
<path d="M0.833495 25.7847C0.833495 25.7814 0.833495 25.7781 0.833495 25.7781L0.833495 25.7764L0.833496 12.4447C0.833496 9.38141 2.06183 6.46808 4.2935 4.23808C6.52516 2.00641 9.4385 0.778077 12.5002 0.778077C15.5635 0.778077 18.4768 2.00641 20.7068 4.23808C22.9385 6.46808 24.1668 9.38141 24.1668 12.4447L24.1668 25.7781L20.8335 25.7781L20.8335 12.4447C20.8335 10.2731 19.9518 8.19474 18.3502 6.59474C16.7502 4.99308 14.6718 4.11141 12.5002 4.11141C10.3302 4.11141 8.25183 4.99308 6.65016 6.59474C5.04849 8.19474 4.16683 10.2731 4.16683 12.4447L4.16683 25.7781L2.50016 25.7781L4.16683 25.7797L4.16683 25.7847C4.16683 27.1014 4.69016 28.3497 5.64349 29.2997C6.59516 30.2514 7.84683 30.7764 9.17016 30.7781C10.4852 30.7797 11.7352 30.2564 12.6868 29.3047C13.6402 28.3497 14.1652 27.0964 14.1668 25.7781L14.1668 12.4447C14.1668 12.0181 13.9885 11.6031 13.6668 11.2814C13.3418 10.9564 12.9268 10.7781 12.5002 10.7781C12.0802 10.7781 11.6552 10.9614 11.3368 11.2797C11.0118 11.6031 10.8335 12.0181 10.8335 12.4447L10.8335 25.7781L7.50016 25.7781L7.50016 12.4447C7.50016 11.1281 8.02516 9.87641 8.98183 8.92141C9.93516 7.96808 11.1852 7.44474 12.5002 7.44474C13.8152 7.44474 15.0668 7.96808 16.0235 8.92474C16.9768 9.87808 17.5002 11.1297 17.5002 12.4447L17.5002 25.7797C17.4985 27.9864 16.6285 30.0747 15.0452 31.6597C13.4618 33.2447 11.3718 34.1147 9.16516 34.1114C6.95516 34.1097 4.86683 33.2381 3.28683 31.6581C1.70349 30.0781 0.833495 27.9914 0.833495 25.7847Z" fill="#F9F9F9"/>
</svg>
