<svg width="31" height="30" viewBox="0 0 31 30" fill="none"
    xmlns="http://www.w3.org/2000/svg">
    <path d="M10.2537 7.16382C10.99 7.16382 11.6525 7.22757 12.26 7.35757C12.8638 7.48632 13.3787 7.69882 13.8138 7.99257C14.2425 8.28632 14.5775 8.67632 14.8188 9.16632C15.0525 9.65007 15.1687 10.2551 15.1687 10.9701C15.1687 11.7451 14.9938 12.3926 14.6425 12.9088C14.2887 13.4263 13.7675 13.8501 13.0725 14.1776C14.0187 14.4513 14.72 14.9301 15.185 15.6101C15.6525 16.2963 15.8813 17.1176 15.8813 18.0801C15.8813 18.8613 15.7325 19.5326 15.4337 20.0963C15.1337 20.6688 14.7225 21.1326 14.2162 21.4888C13.7062 21.8501 13.1213 22.1151 12.4675 22.2888C11.8188 22.4601 11.1462 22.5463 10.4563 22.5463H3V7.16382H10.2537ZM9.815 13.3788C10.415 13.3788 10.9125 13.2363 11.305 12.9476C11.695 12.6626 11.8838 12.1926 11.8838 11.5488C11.8838 11.1913 11.82 10.8963 11.695 10.6651C11.5663 10.4363 11.3925 10.2563 11.1737 10.1301C10.9562 9.99882 10.7125 9.91007 10.4275 9.86132C10.1487 9.80632 9.85625 9.78507 9.55625 9.78507H6.3875V13.3788H9.815ZM10.0038 19.9276C10.3375 19.9276 10.655 19.8988 10.9537 19.8313C11.255 19.7663 11.5225 19.6613 11.75 19.5051C11.9775 19.3551 12.165 19.1513 12.3 18.8913C12.4362 18.6338 12.5025 18.2976 12.5025 17.8938C12.5025 17.1013 12.2788 16.5376 11.8363 16.1963C11.3925 15.8588 10.7975 15.6913 10.0688 15.6913H6.3875V19.9288H10.0038V19.9276ZM20.71 19.8763C21.1687 20.3238 21.83 20.5488 22.69 20.5488C23.3063 20.5488 23.8388 20.3926 24.2875 20.0826C24.73 19.7713 25 19.4388 25.1038 19.0951H27.7975C27.365 20.4351 26.7087 21.3926 25.8113 21.9688C24.925 22.5476 23.8463 22.8351 22.5863 22.8351C21.7088 22.8351 20.9188 22.6938 20.2113 22.4138C19.5025 22.1301 18.9087 21.7338 18.4125 21.2163C17.9262 20.6963 17.55 20.0826 17.2812 19.3601C17.015 18.6426 16.8812 17.8476 16.8812 16.9863C16.8812 16.1538 17.02 15.3751 17.2925 14.6563C17.5712 13.9351 17.9537 13.3126 18.46 12.7901C18.9663 12.2651 19.5662 11.8513 20.265 11.5476C20.9638 11.2463 21.7337 11.0951 22.5875 11.0951C23.53 11.0951 24.3538 11.2776 25.0613 11.6451C25.765 12.0101 26.3438 12.5038 26.7987 13.1226C27.2525 13.7388 27.5763 14.4451 27.7775 15.2363C27.9788 16.0263 28.0487 16.8513 27.9912 17.7151H19.9525C19.9538 18.5951 20.25 19.4288 20.71 19.8763ZM24.225 14.0251C23.8612 13.6226 23.2462 13.4051 22.4937 13.4051C22.005 13.4051 21.6012 13.4863 21.2763 13.6538C20.9587 13.8201 20.7 14.0251 20.5012 14.2676C20.305 14.5138 20.17 14.7738 20.0913 15.0526C20.0138 15.3238 19.9662 15.5688 19.9525 15.7863H24.93C24.8575 15.0063 24.59 14.4301 24.225 14.0251ZM19.3275 8.19632H25.5638V9.71507H19.3275V8.19632Z" fill="#F4F4F4"/>
</svg>