<svg width="31" height="30" viewBox="0 0 31 30" fill="none" xmlns="http://www.w3.org/2000/svg">
<path d="M26.325 8.725C25.2075 6.80875 23.6912 5.29125 21.7737 4.175C19.8575 3.05875 17.7662 2.5 15.5 2.5C13.2338 2.5 11.1425 3.05875 9.225 4.175C7.30875 5.29125 5.79125 6.80875 4.675 8.725C3.55875 10.6412 3 12.7338 3 15C3 17.2662 3.5575 19.3588 4.675 21.275C5.7925 23.1925 7.30875 24.7087 9.22625 25.825C11.1425 26.9412 13.2338 27.5 15.5 27.5C17.7662 27.5 19.8575 26.9412 21.775 25.825C23.6912 24.7087 25.2087 23.1925 26.3262 21.275C27.4425 19.3588 28 17.2662 28 15C28 12.7338 27.4425 10.6412 26.325 8.725ZM15.5 4.575C18 4.575 20.215 5.375 22.15 6.97375C21 8.44125 19.2925 9.64875 17.025 10.5988C15.7725 8.3325 14.415 6.44 12.9487 4.92375C13.8012 4.69125 14.6488 4.575 15.5 4.575ZM7.3875 8.5C8.33 7.31625 9.4575 6.3925 10.7762 5.725C12.2912 7.22625 13.6825 9.1 14.9513 11.35C12.4513 12.1 9.80875 12.475 7.025 12.475C6.30875 12.475 5.7675 12.4587 5.4 12.425C5.78375 10.9912 6.44625 9.68375 7.3875 8.5ZM5.075 15C5.075 14.9325 5.07875 14.85 5.0875 14.75C5.09625 14.65 5.1 14.5675 5.1 14.5C5.4175 14.5175 5.90125 14.525 6.55125 14.525C9.88375 14.525 12.9837 14.0663 15.85 13.15C16.0837 13.6163 16.3262 14.1412 16.575 14.725C14.925 15.0912 13.2325 15.9825 11.4987 17.4C9.765 18.8175 8.5 20.3088 7.7 21.875C5.95 19.8913 5.075 17.6 5.075 15ZM15.5 25.425C13.1325 25.425 11.0075 24.6912 9.12375 23.2262C9.875 21.7425 11.0288 20.3237 12.5875 18.975C14.145 17.625 15.6912 16.7837 17.225 16.45C18.19 19.1162 18.8412 21.8738 19.175 24.725C17.9575 25.1913 16.7325 25.425 15.5 25.425ZM24.35 20.475C23.5175 21.8075 22.4425 22.9 21.125 23.7512C20.825 21.1512 20.25 18.6175 19.4013 16.15C20.5662 16.0675 21.6075 16.025 22.5263 16.025C23.525 16.025 24.6338 16.0675 25.85 16.15C25.6825 17.7 25.1825 19.1412 24.35 20.475ZM22.8 14.225C21.35 14.225 20.0087 14.2838 18.775 14.4C18.4575 13.5838 18.175 12.9087 17.925 12.375C20.5075 11.2425 22.34 9.8675 23.4238 8.25C24.9238 10.0175 25.7412 12.0337 25.8737 14.3C24.8587 14.25 23.8337 14.225 22.8 14.225Z" fill="#F4F4F4"/>
</svg>
