<svg width="31" height="30" viewBox="0 0 31 30" fill="none" xmlns="http://www.w3.org/2000/svg">
<path d="M15.499 9.22119C12.3065 9.22119 9.72021 11.8087 9.72021 14.9999C9.72021 18.1924 12.3065 20.7799 15.499 20.7799C18.689 20.7799 21.2777 18.1924 21.2777 14.9999C21.2777 11.8087 18.689 9.22119 15.499 9.22119ZM15.499 18.7549C13.4252 18.7549 11.744 17.0737 11.744 15.0012C11.744 12.9274 13.4252 11.2474 15.499 11.2474C17.5727 11.2474 19.2515 12.9274 19.2515 15.0012C19.2515 17.0737 17.5727 18.7549 15.499 18.7549Z" fill="#F4F4F4"/>
<path d="M21.5077 10.3561C22.2519 10.3561 22.8552 9.75284 22.8552 9.00863C22.8552 8.26443 22.2519 7.66113 21.5077 7.66113C20.7635 7.66113 20.1602 8.26443 20.1602 9.00863C20.1602 9.75284 20.7635 10.3561 21.5077 10.3561Z" fill="#F4F4F4"/>
<path d="M26.1662 7.63885C25.5799 6.1276 24.3862 4.9326 22.8749 4.34885C22.0012 4.0201 21.0774 3.84385 20.1424 3.82385C18.9387 3.77135 18.5574 3.75635 15.5049 3.75635C12.4524 3.75635 12.0612 3.75635 10.8674 3.82385C9.93494 3.8426 9.01119 4.01885 8.13744 4.34885C6.62494 4.9326 5.43119 6.1276 4.84619 7.63885C4.51744 8.51385 4.34119 9.43635 4.32244 10.3713C4.26869 11.5738 4.25244 11.9551 4.25244 15.0088C4.25244 18.0613 4.25244 18.4501 4.32244 19.6463C4.34119 20.5813 4.51744 21.5038 4.84619 22.3801C5.43244 23.8901 6.62619 25.0851 8.13869 25.6701C9.00869 26.0101 9.93244 26.2026 10.8699 26.2326C12.0737 26.2851 12.4549 26.3013 15.5074 26.3013C18.5599 26.3013 18.9512 26.3013 20.1449 26.2326C21.0787 26.2138 22.0024 26.0363 22.8774 25.7088C24.3887 25.1226 25.5824 23.9288 26.1687 22.4176C26.4974 21.5426 26.6737 20.6201 26.6924 19.6851C26.7462 18.4826 26.7624 18.1013 26.7624 15.0476C26.7624 11.9938 26.7624 11.6063 26.6924 10.4101C26.6762 9.4626 26.5012 8.52385 26.1662 7.63885ZM24.6437 19.5538C24.6349 20.2738 24.5049 20.9876 24.2549 21.6638C23.8737 22.6476 23.0974 23.4251 22.1149 23.8026C21.4462 24.0513 20.7412 24.1813 20.0274 24.1913C18.8399 24.2463 18.5049 24.2601 15.4599 24.2601C12.4124 24.2601 12.1012 24.2601 10.8912 24.1913C10.1799 24.1826 9.47244 24.0513 8.80494 23.8026C7.81869 23.4263 7.03744 22.6488 6.65619 21.6638C6.41119 20.9963 6.27869 20.2901 6.26744 19.5776C6.21369 18.3901 6.20119 18.0551 6.20119 15.0101C6.20119 11.9638 6.20119 11.6526 6.26744 10.4413C6.27619 9.72135 6.40619 9.00885 6.65619 8.3326C7.03744 7.34635 7.81869 6.5701 8.80494 6.1926C9.47244 5.9451 10.1799 5.81385 10.8912 5.80385C12.0799 5.7501 12.4137 5.7351 15.4599 5.7351C18.5062 5.7351 18.8187 5.7351 20.0274 5.80385C20.7412 5.8126 21.4462 5.94385 22.1149 6.1926C23.0974 6.57135 23.8737 7.34885 24.2549 8.3326C24.4999 9.0001 24.6324 9.70635 24.6437 10.4188C24.6974 11.6076 24.7112 11.9413 24.7112 14.9876C24.7112 18.0326 24.7112 18.3601 24.6574 19.5551H24.6437V19.5538Z" fill="#F4F4F4"/>
</svg>
