<svg width="31" height="30" viewBox="0 0 31 30" fill="none" xmlns="http://www.w3.org/2000/svg">
<path d="M27.4912 9.00376C27.2037 7.93126 26.3599 7.08501 25.2887 6.79626C23.3312 6.25876 15.4999 6.25001 15.4999 6.25001C15.4999 6.25001 7.66992 6.24126 5.71117 6.75501C4.66117 7.04126 3.79367 7.90626 3.50367 8.97751C2.98742 10.935 2.98242 14.995 2.98242 14.995C2.98242 14.995 2.97742 19.075 3.48992 21.0125C3.77742 22.0838 4.62117 22.93 5.69367 23.2188C7.67117 23.7563 15.4812 23.765 15.4812 23.765C15.4812 23.765 23.3124 23.7738 25.2699 23.2613C26.3399 22.9738 27.1874 22.1288 27.4787 21.0575C27.9962 19.1013 27.9999 15.0425 27.9999 15.0425C27.9999 15.0425 28.0249 10.9613 27.4912 9.00376ZM12.9949 18.7563L13.0012 11.2563L19.5099 15.0125L12.9949 18.7563Z" fill="#F4F4F4"/>
</svg>
